<?xml version="1.0" encoding="UTF-8" standalone="no"?>
<svg
   xmlns:dc="http://purl.org/dc/elements/1.1/"
   xmlns:cc="http://creativecommons.org/ns#"
   xmlns:rdf="http://www.w3.org/1999/02/22-rdf-syntax-ns#"
   xmlns:svg="http://www.w3.org/2000/svg"
   xmlns="http://www.w3.org/2000/svg"
   xmlns:sodipodi="http://sodipodi.sourceforge.net/DTD/sodipodi-0.dtd"
   xmlns:inkscape="http://www.inkscape.org/namespaces/inkscape"
   width="548pt"
   height="390pt"
   viewBox="0 0 548 390"
   version="1.1"
   id="svg2"
   inkscape:version="0.91 r13725"
   sodipodi:docname="wanted.svg">
  <metadata
     id="metadata141">
    <rdf:RDF>
      <cc:Work
         rdf:about="">
        <dc:format>image/svg+xml</dc:format>
        <dc:type
           rdf:resource="http://purl.org/dc/dcmitype/StillImage" />
        <dc:title></dc:title>
      </cc:Work>
    </rdf:RDF>
  </metadata>
  <defs
     id="defs139" />
  <sodipodi:namedview
     pagecolor="#ffffff"
     bordercolor="#666666"
     borderopacity="1"
     objecttolerance="10"
     gridtolerance="10"
     guidetolerance="10"
     inkscape:pageopacity="0"
     inkscape:pageshadow="2"
     inkscape:window-width="1280"
     inkscape:window-height="948"
     id="namedview137"
     showgrid="false"
     inkscape:zoom="0.68462441"
     inkscape:cx="334.30565"
     inkscape:cy="131.83244"
     inkscape:window-x="0"
     inkscape:window-y="24"
     inkscape:window-maximized="1"
     inkscape:current-layer="surface1155" />
  <g
     id="surface1155">
    <rect
       x="0"
       y="0"
       width="548"
       height="390"
       style="fill:rgb(97.117615%,97.840881%,84.666443%);fill-opacity:1;stroke:none;"
       id="rect5" />
    <path
       style=" stroke:none;fill-rule:nonzero;fill:rgb(15.748596%,36.691284%,53.440857%);fill-opacity:1;"
       d="M 0.324219 239.648438 L 0.324219 264.917969 L 105.324219 264.917969 L 0.324219 239.648438 "
       id="path7" />
    <path
       style=" stroke:none;fill-rule:nonzero;fill:rgb(79.693604%,18.392944%,13.777161%);fill-opacity:1;"
       d="M 189.984375 264.917969 L 0.324219 176.082031 L 0.324219 217.1875 L 158.515625 264.917969 L 189.984375 264.917969 "
       id="path9" />
    <path
       style=" stroke:none;fill-rule:nonzero;fill:rgb(15.748596%,36.691284%,53.440857%);fill-opacity:1;"
       d="M 210 252 L 0.324219 84.3125 L 0.324219 146.933594 L 205 260 L 210 252 "
       id="path11" />
    <path
       style=" stroke:none;fill-rule:nonzero;fill:rgb(79.693604%,18.392944%,13.777161%);fill-opacity:1;"
       d="M 249.1875 264.917969 L 63.566406 0 L 0.324219 0 L 0.324219 37.921875 L 243.0625 264.917969 L 249.1875 264.917969 "
       id="path13" />
    <path
       style=" stroke:none;fill-rule:nonzero;fill:rgb(15.748596%,36.691284%,53.440857%);fill-opacity:1;"
       d="M 266.347656 264.917969 L 193.644531 0 L 112.101562 0 L 262.320312 264.917969 L 266.347656 264.917969 "
       id="path15" />
    <path
       style=" stroke:none;fill-rule:nonzero;fill:rgb(79.693604%,18.392944%,13.777161%);fill-opacity:1;"
       d="M 281.582031 264.917969 L 310.960938 0 L 235.90625 0 L 278.164062 264.917969 L 281.582031 264.917969 "
       id="path17" />
    <path
       style=" stroke:none;fill-rule:nonzero;fill:rgb(15.748596%,36.691284%,53.440857%);fill-opacity:1;"
       d="M 297.15625 264.917969 L 432.863281 0 L 352.878906 0 L 293.316406 264.917969 L 297.15625 264.917969 "
       id="path19" />
    <path
       style=" stroke:none;fill-rule:nonzero;fill:rgb(79.693604%,18.392944%,13.777161%);fill-opacity:1;"
       d="M 315.625 264.917969 L 547.671875 32.171875 L 547.671875 0 L 480.15625 0 L 310.011719 264.917969 L 315.625 264.917969 "
       id="path21" />
    <path
       style=" stroke:none;fill-rule:nonzero;fill:rgb(15.748596%,36.691284%,53.440857%);fill-opacity:1;"
       d="M 341.945312 264.917969 L 547.671875 143.832031 L 547.671875 80.316406 L 331.433594 264.917969 L 341.945312 264.917969 "
       id="path23" />
    <path
       style=" stroke:none;fill-rule:nonzero;fill:rgb(79.693604%,18.392944%,13.777161%);fill-opacity:1;"
       d="M 391.492188 264.917969 L 547.671875 213.507812 L 547.671875 173.128906 L 364.960938 264.917969 L 391.492188 264.917969 "
       id="path25" />
    <path
       style=" stroke:none;fill-rule:nonzero;fill:rgb(15.748596%,36.691284%,53.440857%);fill-opacity:1;"
       d="M 547.671875 264.917969 L 547.671875 235.625 L 437.714844 264.917969 L 547.671875 264.917969 "
       id="path27" />
    <path
       style=" stroke:none;fill-rule:nonzero;fill:rgb(97.117615%,97.840881%,84.666443%);fill-opacity:1;"
       d="M 146.558594 212.746094 L 144.691406 208.964844 L 142.8125 212.894531 L 138.621094 213.679688 L 141.648438 216.5625 L 140.929688 220.824219 L 144.675781 218.675781 L 148.417969 220.53125 L 147.710938 216.320312 L 150.746094 213.203125 L 146.558594 212.746094 "
       id="path29" />
    <path
       style=" stroke:none;fill-rule:nonzero;fill:rgb(97.117615%,97.840881%,84.666443%);fill-opacity:1;"
       d="M 129.667969 201.453125 L 127.804688 197.671875 L 125.925781 201.601562 L 121.730469 202.382812 L 124.757812 205.265625 L 124.035156 209.53125 L 127.785156 207.382812 L 131.527344 209.238281 L 130.820312 205.027344 L 133.855469 201.910156 L 129.667969 201.453125 "
       id="path31" />
    <path
       style=" stroke:none;fill-rule:nonzero;fill:rgb(97.117615%,97.840881%,84.666443%);fill-opacity:1;"
       d="M 112.777344 190.160156 L 110.914062 186.378906 L 109.035156 190.308594 L 104.84375 191.089844 L 107.867188 193.972656 L 107.148438 198.238281 L 110.894531 196.089844 L 114.636719 197.945312 L 113.929688 193.734375 L 116.964844 190.617188 L 112.777344 190.160156 "
       id="path33" />
    <path
       style=" stroke:none;fill-rule:nonzero;fill:rgb(97.117615%,97.840881%,84.666443%);fill-opacity:1;"
       d="M 95.890625 178.867188 L 94.023438 175.085938 L 92.144531 179.011719 L 87.953125 179.796875 L 90.976562 182.679688 L 90.257812 186.945312 L 94.007812 184.796875 L 97.746094 186.652344 L 97.039062 182.441406 L 100.074219 179.324219 L 95.890625 178.867188 "
       id="path35" />
    <path
       style=" stroke:none;fill-rule:nonzero;fill:rgb(97.117615%,97.840881%,84.666443%);fill-opacity:1;"
       d="M 78.996094 167.574219 L 77.132812 163.789062 L 75.253906 167.71875 L 71.0625 168.503906 L 74.089844 171.386719 L 73.367188 175.652344 L 77.113281 173.503906 L 80.855469 175.359375 L 80.148438 171.144531 L 83.183594 168.03125 L 78.996094 167.574219 "
       id="path37" />
    <path
       style=" stroke:none;fill-rule:nonzero;fill:rgb(97.117615%,97.840881%,84.666443%);fill-opacity:1;"
       d="M 62.105469 156.28125 L 60.242188 152.496094 L 58.363281 156.425781 L 54.171875 157.210938 L 57.199219 160.09375 L 56.476562 164.359375 L 60.222656 162.210938 L 63.964844 164.066406 L 63.257812 159.855469 L 66.292969 156.738281 L 62.105469 156.28125 "
       id="path39" />
    <path
       style=" stroke:none;fill-rule:nonzero;fill:rgb(97.117615%,97.840881%,84.666443%);fill-opacity:1;"
       d="M 49.40625 145.441406 L 45.21875 144.988281 L 43.351562 141.203125 L 41.472656 145.132812 L 37.28125 145.917969 L 40.308594 148.800781 L 39.585938 153.066406 L 43.335938 150.914062 L 47.074219 152.769531 L 46.367188 148.558594 L 49.40625 145.441406 "
       id="path41" />
    <path
       style=" stroke:none;fill-rule:nonzero;fill:rgb(97.117615%,97.840881%,84.666443%);fill-opacity:1;"
       d="M 28.328125 133.691406 L 26.460938 129.910156 L 24.582031 133.839844 L 20.390625 134.621094 L 23.417969 137.503906 L 22.695312 141.769531 L 26.445312 139.621094 L 30.183594 141.476562 L 29.476562 137.265625 L 32.515625 134.148438 L 28.328125 133.691406 "
       id="path43" />
    <path
       style=" stroke:none;fill-rule:nonzero;fill:rgb(97.117615%,97.840881%,84.666443%);fill-opacity:1;"
       d="M 11.4375 122.398438 L 9.570312 118.617188 L 7.691406 122.546875 L 3.5 123.328125 L 6.527344 126.210938 L 5.804688 130.480469 L 9.554688 128.328125 L 13.292969 130.183594 L 12.585938 125.972656 L 15.625 122.855469 L 11.4375 122.398438 "
       id="path45" />
    <path
       style=" stroke:none;fill-rule:nonzero;fill:rgb(97.117615%,97.840881%,84.666443%);fill-opacity:1;"
       d="M 57.277344 256.445312 L 54.269531 257.421875 L 51.617188 255.71875 L 51.78125 258.625 L 49.222656 260.34375 L 52.332031 261.164062 L 53.40625 263.929688 L 55.160156 261.527344 L 58.378906 261.519531 L 56.355469 259.214844 L 57.277344 256.445312 "
       id="path47" />
    <path
       style=" stroke:none;fill-rule:nonzero;fill:rgb(97.117615%,97.840881%,84.666443%);fill-opacity:1;"
       d="M 41.683594 254.730469 L 38.675781 255.707031 L 36.027344 254.003906 L 36.1875 256.910156 L 33.632812 258.628906 L 36.738281 259.449219 L 37.8125 262.21875 L 39.570312 259.8125 L 42.785156 259.808594 L 40.765625 257.5 L 41.683594 254.730469 "
       id="path49" />
    <path
       style=" stroke:none;fill-rule:nonzero;fill:rgb(97.117615%,97.840881%,84.666443%);fill-opacity:1;"
       d="M 26.089844 253.019531 L 23.082031 253.992188 L 20.433594 252.289062 L 20.59375 255.195312 L 18.039062 256.917969 L 21.148438 257.738281 L 22.21875 260.503906 L 23.976562 258.101562 L 27.191406 258.09375 L 25.171875 255.785156 L 26.089844 253.019531 "
       id="path51" />
    <path
       style=" stroke:none;fill-rule:nonzero;fill:rgb(97.117615%,97.840881%,84.666443%);fill-opacity:1;"
       d="M 10.496094 251.304688 L 7.488281 252.28125 L 4.839844 250.574219 L 5 253.484375 L 2.445312 255.203125 L 5.554688 256.023438 L 6.625 258.789062 L 8.382812 256.386719 L 11.597656 256.378906 L 9.578125 254.070312 L 10.496094 251.304688 "
       id="path53" />
    <path
       style=" stroke:none;fill-rule:nonzero;fill:rgb(97.117615%,97.840881%,84.666443%);fill-opacity:1;"
       d="M 488.113281 257.433594 L 486.46875 254.96875 L 485.273438 257.695312 L 482.132812 258.398438 L 484.609375 260.210938 L 484.3125 263.113281 L 487.035156 261.507812 L 489.992188 262.597656 L 489.203125 259.792969 L 491.324219 257.5625 L 488.113281 257.433594 "
       id="path55" />
    <path
       style=" stroke:none;fill-rule:nonzero;fill:rgb(97.117615%,97.840881%,84.666443%);fill-opacity:1;"
       d="M 503.707031 255.722656 L 502.058594 253.253906 L 500.863281 255.980469 L 497.726562 256.6875 L 500.203125 258.496094 L 499.90625 261.398438 L 502.628906 259.792969 L 505.585938 260.882812 L 504.796875 258.078125 L 506.917969 255.847656 L 503.707031 255.722656 "
       id="path57" />
    <path
       style=" stroke:none;fill-rule:nonzero;fill:rgb(97.117615%,97.840881%,84.666443%);fill-opacity:1;"
       d="M 519.300781 254.007812 L 517.652344 251.539062 L 516.460938 254.265625 L 513.320312 254.972656 L 515.796875 256.785156 L 515.496094 259.6875 L 518.222656 258.082031 L 521.179688 259.167969 L 520.390625 256.363281 L 522.511719 254.132812 L 519.300781 254.007812 "
       id="path59" />
    <path
       style=" stroke:none;fill-rule:nonzero;fill:rgb(97.117615%,97.840881%,84.666443%);fill-opacity:1;"
       d="M 534.894531 252.292969 L 533.246094 249.828125 L 532.054688 252.554688 L 528.914062 253.257812 L 531.386719 255.070312 L 531.09375 257.972656 L 533.816406 256.367188 L 536.773438 257.457031 L 535.980469 254.652344 L 538.105469 252.417969 L 534.894531 252.292969 "
       id="path61" />
    <path
       style=" stroke:none;fill-rule:nonzero;fill:rgb(97.117615%,97.840881%,84.666443%);fill-opacity:1;"
       d="M 390.992188 222.871094 L 387.140625 224.835938 L 383.3125 222.757812 L 384.019531 227.050781 L 380.890625 230.035156 L 385.179688 230.726562 L 387.066406 234.65625 L 389.015625 230.785156 L 393.3125 230.226562 L 390.226562 227.144531 L 390.992188 222.871094 "
       id="path63" />
    <path
       style=" stroke:none;fill-rule:nonzero;fill:rgb(97.117615%,97.840881%,84.666443%);fill-opacity:1;"
       d="M 407.90625 211.339844 L 404.054688 213.304688 L 400.230469 211.226562 L 400.933594 215.519531 L 397.804688 218.507812 L 402.09375 219.195312 L 403.980469 223.121094 L 405.929688 219.253906 L 410.226562 218.695312 L 407.144531 215.613281 L 407.90625 211.339844 "
       id="path65" />
    <path
       style=" stroke:none;fill-rule:nonzero;fill:rgb(97.117615%,97.840881%,84.666443%);fill-opacity:1;"
       d="M 424.824219 198.804688 L 420.972656 200.773438 L 417.144531 198.691406 L 417.847656 202.988281 L 414.722656 205.972656 L 419.011719 206.664062 L 420.898438 210.589844 L 422.847656 206.722656 L 427.144531 206.164062 L 424.058594 203.082031 L 424.824219 198.804688 "
       id="path67" />
    <path
       style=" stroke:none;fill-rule:nonzero;fill:rgb(97.117615%,97.840881%,84.666443%);fill-opacity:1;"
       d="M 441.738281 186.273438 L 437.886719 188.242188 L 434.0625 186.160156 L 434.765625 190.457031 L 431.636719 193.441406 L 435.925781 194.132812 L 437.8125 198.058594 L 439.765625 194.191406 L 444.058594 193.632812 L 440.976562 190.550781 L 441.738281 186.273438 "
       id="path69" />
    <path
       style=" stroke:none;fill-rule:nonzero;fill:rgb(97.117615%,97.840881%,84.666443%);fill-opacity:1;"
       d="M 458.65625 173.742188 L 454.804688 175.710938 L 450.976562 173.628906 L 451.683594 177.925781 L 448.554688 180.910156 L 452.84375 181.601562 L 454.730469 185.527344 L 456.679688 181.660156 L 460.976562 181.101562 L 457.894531 178.019531 L 458.65625 173.742188 "
       id="path71" />
    <path
       style=" stroke:none;fill-rule:nonzero;fill:rgb(97.117615%,97.840881%,84.666443%);fill-opacity:1;"
       d="M 475.570312 161.210938 L 471.71875 163.179688 L 467.894531 161.097656 L 468.597656 165.394531 L 465.46875 168.378906 L 469.757812 169.070312 L 471.644531 172.996094 L 473.59375 169.128906 L 477.890625 168.566406 L 474.808594 165.488281 L 475.570312 161.210938 "
       id="path73" />
    <path
       style=" stroke:none;fill-rule:nonzero;fill:rgb(97.117615%,97.840881%,84.666443%);fill-opacity:1;"
       d="M 492.484375 148.679688 L 488.632812 150.644531 L 484.808594 148.566406 L 485.511719 152.863281 L 482.386719 155.847656 L 486.675781 156.539062 L 488.5625 160.464844 L 490.511719 156.597656 L 494.808594 156.035156 L 491.726562 152.957031 L 492.484375 148.679688 "
       id="path75" />
    <path
       style=" stroke:none;fill-rule:nonzero;fill:rgb(97.117615%,97.840881%,84.666443%);fill-opacity:1;"
       d="M 509.402344 136.148438 L 505.550781 138.113281 L 501.726562 136.035156 L 502.429688 140.332031 L 499.300781 143.316406 L 503.589844 144.007812 L 505.476562 147.933594 L 507.425781 144.0625 L 511.726562 143.503906 L 508.640625 140.425781 L 509.402344 136.148438 "
       id="path77" />
    <path
       style=" stroke:none;fill-rule:nonzero;fill:rgb(97.117615%,97.840881%,84.666443%);fill-opacity:1;"
       d="M 525.554688 127.894531 L 526.316406 123.617188 L 522.464844 125.582031 L 518.640625 123.503906 L 519.34375 127.796875 L 516.21875 130.78125 L 520.507812 131.472656 L 522.394531 135.402344 L 524.34375 131.53125 L 528.640625 130.972656 L 525.554688 127.894531 "
       id="path79" />
    <path
       style=" stroke:none;fill-rule:nonzero;fill:rgb(97.117615%,97.840881%,84.666443%);fill-opacity:1;"
       d="M 542.472656 115.359375 L 543.234375 111.085938 L 539.382812 113.050781 L 535.558594 110.972656 L 536.261719 115.265625 L 533.132812 118.253906 L 537.421875 118.941406 L 539.308594 122.871094 L 541.257812 119 L 545.554688 118.441406 L 542.472656 115.359375 "
       id="path81" />
    <path
       style=" stroke:none;fill-rule:nonzero;fill:rgb(97.117615%,97.840881%,84.666443%);fill-opacity:1;"
       d="M 229.582031 175.257812 L 225.78125 177.386719 L 221.90625 175.609375 L 222.71875 179.710938 L 219.667969 182.78125 L 223.972656 183.1875 L 225.957031 186.859375 L 227.808594 183.007812 L 232.085938 182.214844 L 228.925781 179.425781 L 229.582031 175.257812 "
       id="path83" />
    <path
       style=" stroke:none;fill-rule:nonzero;fill:rgb(97.117615%,97.840881%,84.666443%);fill-opacity:1;"
       d="M 217.792969 148.246094 L 214.636719 145.460938 L 215.289062 141.296875 L 211.492188 143.421875 L 207.613281 141.644531 L 208.425781 145.746094 L 205.378906 148.816406 L 209.679688 149.222656 L 211.664062 152.894531 L 213.515625 149.042969 L 217.792969 148.246094 "
       id="path85" />
    <path
       style=" stroke:none;fill-rule:nonzero;fill:rgb(97.117615%,97.840881%,84.666443%);fill-opacity:1;"
       d="M 211.503906 127.285156 L 208.34375 124.496094 L 209 120.328125 L 205.199219 122.457031 L 201.320312 120.683594 L 202.136719 124.78125 L 199.085938 127.851562 L 203.386719 128.257812 L 205.375 131.929688 L 207.226562 128.078125 L 211.503906 127.285156 "
       id="path87" />
    <path
       style=" stroke:none;fill-rule:nonzero;fill:rgb(97.117615%,97.840881%,84.666443%);fill-opacity:1;"
       d="M 202.921875 106.355469 L 199.761719 103.566406 L 200.417969 99.402344 L 196.617188 101.527344 L 192.738281 99.753906 L 193.550781 103.851562 L 190.503906 106.921875 L 194.804688 107.328125 L 196.792969 111 L 198.640625 107.148438 L 202.921875 106.355469 "
       id="path89" />
    <path
       style=" stroke:none;fill-rule:nonzero;fill:rgb(97.117615%,97.840881%,84.666443%);fill-opacity:1;"
       d="M 195.628906 87.390625 L 192.46875 84.601562 L 193.125 80.4375 L 189.324219 82.5625 L 185.449219 80.785156 L 186.261719 84.886719 L 183.210938 87.957031 L 187.511719 88.363281 L 189.5 92.035156 L 191.351562 88.183594 L 195.628906 87.390625 "
       id="path91" />
    <path
       style=" stroke:none;fill-rule:nonzero;fill:rgb(97.117615%,97.840881%,84.666443%);fill-opacity:1;"
       d="M 188.335938 68.425781 L 185.179688 65.636719 L 185.835938 61.472656 L 182.035156 63.597656 L 178.15625 61.824219 L 178.96875 65.921875 L 175.921875 68.992188 L 180.222656 69.398438 L 182.210938 73.070312 L 184.058594 69.21875 L 188.335938 68.425781 "
       id="path93" />
    <path
       style=" stroke:none;fill-rule:nonzero;fill:rgb(97.117615%,97.840881%,84.666443%);fill-opacity:1;"
       d="M 181.042969 49.460938 L 177.886719 46.671875 L 178.542969 42.507812 L 174.742188 44.632812 L 170.863281 42.859375 L 171.675781 46.957031 L 168.628906 50.027344 L 172.929688 50.433594 L 174.917969 54.105469 L 176.765625 50.253906 L 181.042969 49.460938 "
       id="path95" />
    <path
       style=" stroke:none;fill-rule:nonzero;fill:rgb(97.117615%,97.840881%,84.666443%);fill-opacity:1;"
       d="M 173.753906 30.496094 L 170.59375 27.710938 L 171.25 23.539062 L 167.449219 25.667969 L 163.574219 23.894531 L 164.386719 27.992188 L 161.335938 31.0625 L 165.640625 31.46875 L 167.625 35.140625 L 169.476562 31.289062 L 173.753906 30.496094 "
       id="path97" />
    <path
       style=" stroke:none;fill-rule:nonzero;fill:rgb(97.117615%,97.840881%,84.666443%);fill-opacity:1;"
       d="M 158.347656 12.503906 L 160.335938 16.175781 L 162.183594 12.324219 L 166.460938 11.53125 L 163.304688 8.742188 L 163.960938 4.578125 L 160.160156 6.703125 L 156.28125 4.929688 L 157.09375 9.027344 L 154.046875 12.097656 L 158.347656 12.503906 "
       id="path99" />
    <path
       style=" stroke:none;fill-rule:nonzero;fill:rgb(97.117615%,97.840881%,84.666443%);fill-opacity:1;"
       d="M 317.507812 191.992188 L 315.855469 187.917969 L 313.648438 191.746094 L 309.292969 192.105469 L 312.195312 195.378906 L 311.152344 199.667969 L 315.15625 197.863281 L 318.859375 200.15625 L 318.433594 195.769531 L 321.769531 192.898438 L 317.507812 191.992188 "
       id="path101" />
    <path
       style=" stroke:none;fill-rule:nonzero;fill:rgb(97.117615%,97.840881%,84.666443%);fill-opacity:1;"
       d="M 325.097656 171.863281 L 323.449219 167.792969 L 321.242188 171.621094 L 316.886719 171.980469 L 319.789062 175.25 L 318.742188 179.542969 L 322.746094 177.738281 L 326.453125 180.03125 L 326.023438 175.644531 L 329.363281 172.769531 L 325.097656 171.863281 "
       id="path103" />
    <path
       style=" stroke:none;fill-rule:nonzero;fill:rgb(97.117615%,97.840881%,84.666443%);fill-opacity:1;"
       d="M 332.6875 151.738281 L 331.039062 147.667969 L 328.832031 151.492188 L 324.476562 151.855469 L 327.382812 155.125 L 326.335938 159.414062 L 330.335938 157.609375 L 334.046875 159.90625 L 333.617188 155.519531 L 336.953125 152.644531 L 332.6875 151.738281 "
       id="path105" />
    <path
       style=" stroke:none;fill-rule:nonzero;fill:rgb(97.117615%,97.840881%,84.666443%);fill-opacity:1;"
       d="M 340.28125 131.613281 L 338.628906 127.539062 L 336.425781 131.367188 L 332.066406 131.730469 L 334.972656 135 L 333.925781 139.289062 L 337.929688 137.484375 L 341.636719 139.78125 L 341.210938 135.394531 L 344.546875 132.519531 L 340.28125 131.613281 "
       id="path107" />
    <path
       style=" stroke:none;fill-rule:nonzero;fill:rgb(97.117615%,97.840881%,84.666443%);fill-opacity:1;"
       d="M 347.871094 111.484375 L 346.222656 107.414062 L 344.015625 111.242188 L 339.660156 111.601562 L 342.5625 114.871094 L 341.519531 119.164062 L 345.519531 117.359375 L 349.226562 119.652344 L 348.800781 115.265625 L 352.136719 112.390625 L 347.871094 111.484375 "
       id="path109" />
    <path
       style=" stroke:none;fill-rule:nonzero;fill:rgb(97.117615%,97.840881%,84.666443%);fill-opacity:1;"
       d="M 355.464844 91.359375 L 353.8125 87.285156 L 351.605469 91.113281 L 347.25 91.476562 L 350.152344 94.746094 L 349.109375 99.035156 L 353.109375 97.230469 L 356.816406 99.527344 L 356.390625 95.140625 L 359.730469 92.265625 L 355.464844 91.359375 "
       id="path111" />
    <path
       style=" stroke:none;fill-rule:nonzero;fill:rgb(97.117615%,97.840881%,84.666443%);fill-opacity:1;"
       d="M 363.054688 71.234375 L 361.402344 67.160156 L 359.199219 70.988281 L 354.84375 71.351562 L 357.746094 74.621094 L 356.699219 78.910156 L 360.703125 77.105469 L 364.410156 79.398438 L 363.980469 75.015625 L 367.320312 72.140625 L 363.054688 71.234375 "
       id="path113" />
    <path
       style=" stroke:none;fill-rule:nonzero;fill:rgb(97.117615%,97.840881%,84.666443%);fill-opacity:1;"
       d="M 370.644531 51.105469 L 368.996094 47.035156 L 366.789062 50.863281 L 362.433594 51.222656 L 365.335938 54.492188 L 364.289062 58.785156 L 368.292969 56.980469 L 372.003906 59.273438 L 371.574219 54.886719 L 374.910156 52.011719 L 370.644531 51.105469 "
       id="path115" />
    <path
       style=" stroke:none;fill-rule:nonzero;fill:rgb(97.117615%,97.840881%,84.666443%);fill-opacity:1;"
       d="M 382.503906 31.886719 L 378.238281 30.980469 L 376.585938 26.910156 L 374.382812 30.734375 L 370.023438 31.097656 L 372.929688 34.367188 L 371.882812 38.65625 L 375.886719 36.855469 L 379.59375 39.148438 L 379.164062 34.761719 L 382.503906 31.886719 "
       id="path117" />
    <path
       style=" stroke:none;fill-rule:nonzero;fill:rgb(97.117615%,97.840881%,84.666443%);fill-opacity:1;"
       d="M 379.476562 18.53125 L 383.476562 16.726562 L 387.183594 19.023438 L 386.757812 14.636719 L 390.09375 11.761719 L 385.828125 10.855469 L 384.179688 6.78125 L 381.972656 10.609375 L 377.617188 10.972656 L 380.519531 14.242188 L 379.476562 18.53125 "
       id="path119" />
    <path
       style=" stroke:none;fill-rule:nonzero;fill:rgb(97.117615%,97.840881%,84.666443%);fill-opacity:1;"
       d="M 226.183594 289.320312 C 224.382812 288 222.394531 286.773438 220.296875 285.476562 C 216.203125 282.945312 211.972656 280.332031 209.410156 277.070312 L 209.339844 276.980469 L 209.253906 276.90625 C 209.179688 276.851562 209.109375 276.800781 209.042969 276.761719 C 208.589844 276.484375 208.191406 276.515625 207.941406 276.59375 C 207.507812 276.71875 207.253906 277.03125 207.085938 277.316406 L 202.699219 274.171875 C 193.015625 267.234375 183.867188 260.675781 174.480469 253.453125 C 169.839844 246.457031 172.921875 239.753906 176.1875 232.660156 C 177.945312 228.84375 179.761719 224.890625 180.292969 220.867188 L 180.304688 220.789062 L 180.300781 220.710938 C 180.269531 219.722656 180.226562 218.722656 180.179688 217.710938 C 179.777344 208.496094 179.363281 198.964844 186.808594 192.988281 C 203.847656 181.300781 214.523438 169.480469 221.363281 154.695312 L 221.628906 154.117188 L 221.210938 153.644531 C 216.648438 148.503906 215.21875 140.324219 217.378906 131.75 C 222.246094 122.054688 229.535156 115.261719 239.042969 111.550781 L 239.480469 111.382812 L 239.617188 110.9375 C 239.652344 110.8125 239.6875 110.675781 239.726562 110.53125 C 239.78125 110.316406 239.90625 109.804688 240.023438 109.777344 L 240.136719 109.75 L 240.234375 109.699219 C 242.863281 108.359375 245.46875 106.707031 248.21875 104.960938 C 256.304688 99.828125 264.660156 94.519531 273.828125 97.410156 L 274.714844 95.714844 C 274.828125 95.808594 275.03125 96.144531 274.914062 96.558594 C 274.792969 96.972656 274.441406 97.144531 274.292969 97.164062 L 274.4375 97.15625 L 274.609375 97.105469 C 276.660156 96.371094 278.796875 96.707031 281.140625 98.132812 C 285.128906 100.558594 288.652344 105.597656 290.761719 108.609375 C 291.269531 109.332031 291.703125 109.957031 292.0625 110.429688 C 293.765625 112.355469 295.589844 113.886719 297.691406 115.164062 C 302.003906 117.789062 306.785156 118.875 311.410156 119.921875 C 316.023438 120.96875 320.796875 122.050781 325.105469 124.671875 C 326.300781 125.398438 327.4375 126.230469 328.480469 127.144531 L 328.589844 127.238281 L 328.71875 127.300781 C 329.300781 127.5625 329.863281 127.855469 330.390625 128.179688 C 337.574219 132.550781 338.855469 141.875 339.171875 149.507812 L 339.179688 149.726562 L 339.28125 149.921875 C 341.476562 154.074219 345.726562 156.816406 349.835938 159.472656 C 355.671875 163.242188 361.1875 166.804688 360.621094 173.992188 C 359.894531 178.5 358.675781 183.160156 357.496094 187.667969 L 356.671875 190.828125 L 357.835938 190.910156 C 358.460938 190.957031 359.242188 191.242188 359.980469 191.691406 C 360.847656 192.21875 361.335938 192.773438 361.488281 193.085938 L 361.539062 193.175781 C 363.175781 195.78125 365.699219 198.015625 368.144531 200.179688 C 372.90625 204.386719 377.398438 208.359375 375.378906 214.707031 L 375.332031 214.855469 L 375.332031 215.007812 C 375.355469 219.238281 373.902344 223.226562 372.359375 227.445312 C 370.183594 233.417969 367.929688 239.589844 370.238281 246.460938 C 369.941406 247.746094 368.558594 248.976562 367.328125 250.0625 L 366.371094 250.90625 L 366.894531 251.246094 C 365.746094 252.34375 364.570312 253.476562 363.367188 254.628906 C 351.609375 265.9375 336.996094 279.992188 324.105469 288.199219 C 315.964844 288.945312 304.292969 285.964844 296.238281 281.066406 C 293.6875 279.511719 291.558594 277.820312 289.90625 276.035156 L 289.300781 275.378906 L 288.597656 275.929688 C 286.21875 277.796875 284.222656 278.304688 281.925781 277.636719 L 281.859375 277.617188 L 281.796875 277.609375 C 276.703125 276.847656 270.527344 274.378906 264.40625 270.652344 C 260.730469 268.414062 257.28125 265.847656 254.4375 263.230469 L 253.964844 262.796875 L 253.382812 263.054688 C 252.160156 263.601562 250.941406 264.070312 249.757812 264.460938 L 249.070312 264.683594 L 249.089844 265.40625 C 249.3125 274.472656 245.253906 285.804688 235.679688 290.746094 C 235.4375 290.808594 235.191406 290.871094 234.949219 290.933594 C 233.167969 291.394531 231.628906 291.796875 230.292969 290.984375 C 230.277344 290.976562 230.261719 290.964844 230.246094 290.957031 C 229.578125 286.972656 229.144531 282.976562 228.722656 279.109375 C 228.34375 275.625 227.949219 272.019531 227.390625 268.441406 L 227.363281 268.273438 L 227.277344 268.121094 C 225.371094 264.671875 220.0625 261.363281 215.792969 258.707031 C 214.746094 258.054688 213.765625 257.445312 212.925781 256.886719 L 212.511719 256.613281 L 212.046875 256.785156 C 208.246094 258.21875 205.175781 261.902344 203.621094 266.890625 L 203.59375 266.980469 L 203.585938 267.070312 C 203.3125 269.464844 203.710938 271.957031 204.742188 274.269531 L 204.9375 274.714844 L 205.410156 274.820312 C 205.480469 274.835938 205.539062 274.859375 205.582031 274.886719 C 205.6875 274.949219 205.777344 275.078125 205.921875 275.300781 C 206.074219 275.53125 206.261719 275.820312 206.550781 276.082031 L 207.316406 276.785156 L 207.964844 275.972656 C 208.210938 275.664062 208.390625 275.324219 208.566406 274.996094 C 209.058594 274.070312 209.230469 273.875 209.863281 274.015625 C 211.878906 274.953125 214.476562 276.214844 216.914062 277.703125 C 222.644531 281.1875 225.972656 285.03125 227.085938 289.449219 C 226.988281 289.476562 226.675781 289.484375 226.183594 289.320312 "
       id="path121" />
    <path
       style=" stroke:none;fill-rule:nonzero;fill:rgb(12.117004%,26.983643%,38.803101%);fill-opacity:1;"
       d="M 228.855469 214.101562 C 228.511719 214.960938 229.046875 216.707031 227.535156 216.855469 C 225.660156 217.308594 225.28125 215.304688 224.640625 214.023438 C 220.800781 199.605469 223.175781 185.773438 224.539062 171.855469 C 225.660156 183.734375 223.578125 196.496094 230.066406 207.734375 C 229.945312 209.972656 231.335938 212.945312 228.855469 214.101562 Z M 217.488281 233.65625 C 218.195312 236.574219 215.914062 239.453125 215.273438 242.257812 C 212.507812 239.507812 216.300781 236.484375 217.488281 233.65625 Z M 236.042969 130.179688 C 235.921875 129.214844 237.800781 127.875 238.949219 127.152344 C 242.449219 125.195312 246.183594 123.734375 249.992188 126.230469 C 254.605469 129.75 258.769531 133.707031 261.863281 138.253906 C 258.292969 135.367188 253.101562 129.011719 247.722656 127.335938 C 243.761719 128.300781 239.386719 128.480469 236.042969 130.179688 Z M 366.039062 252.613281 C 361.691406 255.894531 356.105469 261.78125 353.242188 264.570312 C 342.15625 272.570312 333.234375 284.019531 319.3125 287.628906 C 311.828125 285.914062 303.003906 285.519531 296.972656 280.253906 C 293.65625 277.9375 291.53125 276.605469 290.183594 275.875 C 291.53125 274.691406 292.8125 273.367188 294.160156 272.320312 C 302.753906 279.507812 313.09375 282.953125 323.617188 281.71875 C 335.894531 275.023438 345.351562 265.355469 354.207031 254.585938 C 355.890625 252.535156 357.5625 250.4375 359.226562 248.3125 C 359.773438 248.292969 360.429688 247.800781 360.789062 248.375 C 360.949219 251.441406 357.683594 254.0625 356.628906 256.0625 C 356.484375 256.34375 356.378906 256.609375 356.335938 256.859375 C 356.683594 256.757812 357.019531 256.636719 357.34375 256.496094 C 362.992188 254.09375 364.46875 246.671875 367.285156 241.492188 C 369.347656 243.539062 367.660156 247.285156 366.65625 250.160156 C 366.5625 250.183594 366.476562 250.214844 366.382812 250.28125 C 366.34375 250.328125 366.25 251.128906 366.164062 251.800781 C 366.101562 252.09375 366.050781 252.367188 366.039062 252.613281 C 366.046875 252.613281 366.054688 252.605469 366.058594 252.601562 C 366.050781 252.667969 366.039062 252.714844 366.03125 252.722656 C 366.03125 252.691406 366.039062 252.648438 366.039062 252.613281 Z M 287.757812 272.332031 C 281.820312 268.363281 274.804688 262.671875 267.5625 259.6875 C 263.890625 259.589844 261.941406 263.375 260.675781 266.335938 C 259.34375 266.769531 258.933594 265.050781 258.058594 264.210938 C 257.339844 263.523438 256.675781 263.085938 256.078125 262.820312 C 261.476562 259.960938 266.113281 255.796875 269.621094 250.460938 C 269.6875 248.015625 273.183594 246.941406 274.464844 246.300781 C 274.007812 248.507812 273.160156 250.480469 274.058594 252.804688 C 277.644531 258.007812 283.246094 261.0625 289.71875 262.6875 C 304.078125 259.523438 311.523438 247 321.550781 237.820312 C 318.339844 243.683594 313.289062 247.894531 310.128906 253.96875 C 303.8125 261.136719 298.765625 272.636719 287.757812 272.332031 Z M 264.464844 246.96875 C 255.9375 241.417969 249.210938 234.660156 241.050781 228.808594 C 237.953125 228.34375 234.644531 228.820312 231.757812 228.308594 C 229.933594 228.972656 230.457031 232.488281 228.535156 231.851562 C 230.160156 222.472656 235.171875 210.566406 240.367188 201.71875 C 240.664062 201.695312 240.96875 201.65625 241.269531 201.582031 C 244.894531 196.328125 249.386719 190.695312 253.601562 184.957031 C 253.058594 186.164062 252.527344 187.371094 252.023438 188.585938 C 251.742188 189.65625 251.394531 190.722656 251 191.78125 C 248.027344 199.757812 242.363281 207.300781 242.195312 215.824219 C 242.484375 227.90625 254.476562 233.605469 263.9375 239.363281 C 268.515625 240.015625 274.113281 239.867188 276.976562 235.75 C 281.644531 230.414062 284.601562 223.511719 288.5625 218.460938 C 288.929688 218.148438 289.574219 218.542969 289.472656 219.011719 C 284.617188 229.027344 277.140625 238.691406 269.285156 246.347656 C 268.136719 247.066406 264.230469 251.441406 264.464844 246.96875 Z M 247.769531 169.296875 C 240.890625 166.886719 232.578125 163.605469 227.722656 158.160156 C 225.363281 156.191406 224.058594 153.089844 221.800781 151.535156 C 217.566406 145.941406 218.035156 137.875 219.921875 131.5625 C 224.042969 122.164062 232.609375 117.429688 241.738281 114.101562 C 242.136719 113.453125 240.90625 114.304688 241.039062 113.5 C 250.113281 106.761719 259.375 99.429688 271.4375 97.710938 C 272.261719 97.574219 275.308594 97.953125 277.738281 98.085938 C 280.542969 99.140625 283.917969 100.246094 284.097656 100.261719 C 288.34375 108.171875 293.683594 116.042969 303.5 119.175781 C 314.53125 120.023438 327.484375 125.597656 334.191406 135.011719 C 333.519531 139.042969 328.636719 137.136719 325.839844 138.8125 C 321.691406 140.371094 322.464844 145.816406 318.472656 147.117188 C 318.113281 146.546875 318.558594 146.105469 318.535156 145.558594 C 318.203125 144.644531 316.980469 144.609375 316.273438 144.894531 C 311.332031 152.722656 305.1875 161.066406 301.128906 169.785156 C 301.402344 171.375 299.902344 173.839844 302.085938 174.632812 C 308.039062 171.859375 308.898438 163.144531 314 159.144531 C 310.113281 169.035156 307.367188 179.09375 305.222656 189.332031 C 309.972656 182.984375 313.21875 175.898438 317.574219 170.199219 C 318.804688 169.351562 319.523438 166.414062 321.285156 167.308594 C 318.136719 171.609375 315.0625 176.667969 312.769531 181.3125 C 311.003906 184.503906 311.867188 188.046875 309.972656 191.160156 C 305.359375 196.699219 302.15625 204.878906 294.632812 205.273438 C 294.21875 204.492188 294.691406 203.714844 294.75 203.035156 C 293.792969 202.273438 292.726562 201.980469 291.765625 202.105469 C 288.90625 205.34375 285.269531 208.105469 281.097656 209.121094 C 280.527344 209.109375 279.9375 209.097656 279.359375 209.035156 C 276.949219 208.871094 274.554688 208.21875 273.660156 205.570312 C 273.601562 205.480469 273.558594 205.355469 273.523438 205.222656 C 275.214844 193.101562 278.722656 181.203125 281.347656 169.296875 C 282.402344 155.015625 291.59375 141.953125 291.242188 127.347656 C 289.832031 123.828125 289.183594 119.347656 284.84375 118.304688 C 281.230469 117.523438 282.007812 122.085938 279.117188 122.457031 C 274.777344 117.328125 266.886719 113.949219 260.171875 113.59375 C 263 114.78125 265.515625 116.488281 268.242188 117.261719 C 273.40625 119.871094 272.878906 125.410156 274.800781 130.136719 C 272.332031 133.609375 270.871094 138.050781 266.882812 139.351562 C 264.371094 136.757812 262.050781 133.570312 258.8125 131.597656 C 261.734375 134.089844 262.621094 138.179688 264.296875 140.976562 C 265.015625 142.125 266.09375 140.648438 266.238281 142.160156 C 264.058594 145.449219 264.082031 150.085938 260.757812 153.214844 C 258.101562 145.023438 251.480469 137.796875 243.460938 134.335938 C 240.214844 133.25 235.839844 133.433594 234.015625 130.011719 C 233.414062 129.824219 232.324219 129.867188 232.1875 130.675781 C 232.105469 131.691406 232.484375 132.8125 233.265625 133.285156 C 242.164062 137.636719 252.339844 142.230469 256.421875 151.285156 C 256.992188 151.808594 258.472656 152 258.128906 152.859375 C 248.292969 152.378906 238.460938 151.902344 228.734375 150.070312 C 227.175781 150.011719 221.953125 148.078125 223.882812 151.914062 C 230.265625 159.527344 240.96875 166.753906 251.328125 166.664062 C 254.664062 165.851562 259.300781 165.828125 261.195312 161.832031 C 263.976562 158.726562 264.183594 154.589844 266.644531 152 C 267.035156 152.238281 267.347656 152.605469 267.65625 152.96875 C 268.5 150.996094 269.347656 149.023438 270.113281 147.179688 C 273.628906 142.570312 276.34375 136.9375 280.53125 133.269531 C 280.324219 137.40625 276.578125 141.519531 274.367188 145.152344 C 270.460938 153.152344 266.039062 160.890625 261.832031 168.640625 C 257.03125 172.660156 253.398438 178.589844 249.191406 183.308594 C 249.640625 178.78125 251.339844 173.066406 247.769531 169.296875 Z M 335.515625 148.605469 C 338.917969 153.519531 343.34375 157.636719 349.128906 160.976562 C 350.824219 164.320312 352.046875 168.4375 349.789062 171.859375 C 349.761719 172.199219 349.941406 172.484375 349.992188 172.695312 C 351.800781 170.597656 353.484375 167.535156 356.269531 167.632812 C 358.164062 168.605469 359.632812 170.566406 359.179688 172.777344 C 356.253906 182.546875 348.144531 189.160156 341.414062 195.546875 C 340.664062 194.734375 339.589844 192.125 337.523438 193.179688 C 337.238281 193.359375 336.898438 193.332031 336.691406 193.382812 C 325.464844 207.160156 320.375 225.738281 307.082031 237.367188 C 305.253906 233.949219 305.699219 229.417969 305.960938 225.492188 C 308.074219 211.503906 319.21875 198.738281 323.367188 184.917969 C 328.425781 174.851562 332.289062 164.410156 332.179688 153.503906 C 333.671875 151.925781 333.398438 149.449219 335.515625 148.605469 Z M 363.773438 203.46875 C 366.65625 208.953125 361.632812 213.710938 362.0625 219.128906 C 366.894531 216.738281 367.613281 209.714844 371.804688 206.042969 C 373.675781 214.644531 365.304688 221.101562 361.046875 228.101562 C 358.773438 229.207031 355.9375 228.902344 353.695312 229.667969 C 349.164062 235.035156 345.003906 240.851562 340.574219 246.289062 C 336.277344 251.566406 331.734375 256.480469 326.355469 260.289062 C 326.066406 260.472656 325.9375 260.390625 325.964844 260.054688 C 328.949219 254.457031 332.292969 248.890625 335.707031 243.328125 C 338.097656 239.433594 340.53125 235.535156 342.90625 231.632812 C 345.363281 225.84375 348.757812 220.269531 346.378906 213.667969 C 348.15625 207.820312 352.667969 202.75 356.003906 197.851562 C 356.257812 196.640625 356.535156 195.4375 356.824219 194.234375 C 358.753906 197.507812 363.179688 199.984375 363.773438 203.46875 Z M 367.96875 250.789062 C 369.402344 249.519531 371.007812 248.089844 371.234375 246.386719 C 367.273438 235.089844 376.363281 225.699219 376.300781 215 C 379.621094 204.585938 367.050781 200.132812 362.359375 192.660156 C 361.777344 191.476562 359.609375 190.066406 357.902344 189.941406 C 359.28125 184.636719 360.738281 179.378906 361.589844 174.066406 C 362.609375 161.007812 345.261719 159.15625 340.140625 149.46875 C 339.78125 140.71875 338.179688 130.507812 329.117188 126.414062 C 317.757812 116.480469 303.042969 121.382812 292.835938 109.84375 C 290.070312 106.207031 282.507812 93.25 274.28125 96.191406 C 273.921875 96.207031 273.902344 96.3125 274.121094 96.484375 C 261.359375 92.464844 250.242188 103.515625 239.796875 108.832031 C 238.960938 109.035156 238.878906 110.050781 238.691406 110.648438 C 228.90625 114.464844 221.363281 121.601562 216.460938 131.410156 C 214.539062 138.945312 215.003906 148.109375 220.480469 154.289062 C 212.59375 171.339844 199.925781 182.816406 186.199219 192.230469 C 177.515625 199.203125 179.003906 210.773438 179.332031 220.742188 C 177.855469 231.925781 166 242.652344 173.761719 254.128906 C 184.769531 262.605469 195.574219 270.246094 206.953125 278.410156 C 207.910156 279.171875 207.691406 276.90625 208.648438 277.667969 C 212.648438 282.769531 220.335938 286.199219 225.722656 290.191406 C 226.449219 290.457031 227.855469 290.777344 228.097656 289.503906 C 226.195312 281.238281 217.660156 276.578125 210.1875 273.097656 C 208.1875 272.589844 207.96875 274.410156 207.207031 275.367188 C 206.636719 274.847656 206.5625 274.089844 205.625 273.875 C 204.652344 271.683594 204.300781 269.339844 204.550781 267.183594 C 206.035156 262.398438 209.265625 257.96875 214.371094 257.167969 C 213.59375 256.695312 212.660156 256.480469 211.484375 256.652344 C 206.480469 257.871094 203.554688 263.554688 201.917969 267.710938 C 199.117188 266.183594 197.203125 263.777344 195.789062 261.136719 C 193.019531 258.386719 196.035156 254.890625 195.714844 252.207031 C 194.253906 252.566406 193.851562 254.984375 192.859375 255.445312 C 191.058594 251.6875 188.320312 248.597656 185.136719 245.945312 C 185.933594 242.882812 186.0625 238.875 188.289062 236.675781 C 182.5625 240.828125 180.953125 248.730469 180.757812 255.1875 C 180.546875 255.238281 180.339844 255.289062 180.050781 255.46875 C 178.789062 253.457031 176.011719 252.476562 175.085938 250.492188 C 174.335938 245.59375 173.457031 240.617188 175.929688 236.261719 C 180.828125 231.425781 185.542969 226.296875 192.816406 224.859375 C 189.234375 222.859375 183.285156 225.636719 180.195312 228.375 C 182.808594 222.324219 187.53125 216.316406 185.464844 210.082031 C 185.1875 204.40625 182.8125 213.269531 181.558594 214.457031 C 181.414062 207.976562 181.613281 201.519531 186.179688 195.769531 C 195.308594 188.355469 205.289062 182.171875 212.460938 172.144531 C 215.816406 167.792969 218.90625 160.96875 222.890625 156.464844 C 227.242188 159.824219 230.101562 164.761719 235.945312 166.539062 C 238.816406 173.792969 238.585938 181.472656 239.398438 188.894531 C 239.257812 190.585938 238.5625 193.183594 237.203125 193.957031 C 236.855469 187.523438 235.703125 180.074219 235.089844 174.371094 C 235.320312 183.039062 234.019531 191.308594 236.074219 200.195312 C 236.597656 200.636719 237.152344 200.984375 237.730469 201.238281 C 233.546875 207.070312 230.269531 216.039062 227.636719 221.355469 C 223.386719 218.414062 221.882812 213.589844 217.265625 210.960938 C 216.171875 206.917969 215.285156 202.824219 212.257812 199.917969 C 211.453125 199.78125 209.738281 199.09375 209.46875 200.707031 C 211.246094 208.003906 216.753906 213.847656 222.394531 218.878906 C 222.855469 219.867188 226.230469 221.921875 222.789062 222.316406 C 217.164062 226.886719 212.507812 218.191406 207.941406 215.765625 C 207.238281 216.050781 206.777344 215.058594 206.121094 215.546875 C 204.730469 217.542969 204.015625 219.597656 202.832031 221.539062 C 202.960938 221.617188 203.21875 221.777344 203.351562 221.855469 C 224.285156 228.910156 242.199219 244.433594 244.269531 267.011719 C 243.578125 273.695312 238.328125 280.277344 232.277344 282.632812 C 230.699219 285.226562 233.648438 288.261719 232.460938 291.09375 C 231.992188 290.984375 231.128906 291.527344 231.132812 290.640625 C 228.996094 282.765625 229.851562 274.9375 229.824219 267.101562 C 227.429688 263.15625 222.652344 260.785156 218.742188 257.871094 C 217.460938 258.515625 215.804688 257.148438 214.988281 258.78125 C 218.980469 261.566406 224.0625 264.308594 226.429688 268.59375 C 227.632812 276.25 228.027344 283.777344 229.359375 291.515625 C 231.402344 293.113281 233.726562 292.21875 236.019531 291.660156 C 245.554688 286.804688 250.308594 275.484375 250.058594 265.378906 C 251.328125 264.96875 252.566406 264.480469 253.777344 263.941406 C 261.054688 270.636719 272.421875 277.191406 281.652344 278.566406 C 284.730469 279.460938 287.082031 278.351562 289.195312 276.695312 C 297.003906 285.144531 313.863281 290.210938 324.429688 289.144531 C 339.171875 279.8125 355.925781 263.0625 368.648438 250.90625 C 368.417969 251.027344 368.195312 250.9375 367.96875 250.789062 "
       id="path123" />
  </g>
</svg>
